<svg xmlns="http://www.w3.org/2000/svg" viewBox="0 0 1000 300">
  <rect width="1000" height="300" fill="#000000"/>
  <g fill="white">
    <path d="M150 50c-25 0-45 20-45 45 0 15 7 28 18 36-8 5-13 14-13 24 0 16 13 29 29 29s29-13 29-29c0-10-5-19-13-24 11-8 18-21 18-36 0-25-20-45-45-45zm0 15c17 0 30 13 30 30s-13 30-30 30-30-13-30-30 13-30 30-30z"/>
  </g>
  <text x="300" y="120" font-family="Arial, sans-serif" font-size="48" font-weight="300" text-anchor="start" fill="white">tv</text>
  <text x="400" y="120" font-family="Arial, sans-serif" font-size="60" font-weight="300" text-anchor="start" fill="white">+</text>
  <g fill="#A6A6A6">
    <text x="150" y="200" font-family="Arial, sans-serif" font-size="20" text-anchor="middle" fill="#A6A6A6">Apple</text>
  </g>
</svg>