<svg xmlns="http://www.w3.org/2000/svg" viewBox="0 0 1000 562">
  <defs>
    <radialGradient id="grad1" cx="50%" cy="50%" r="50%">
      <stop offset="0%" style="stop-color:#40d9ff;stop-opacity:1" />
      <stop offset="100%" style="stop-color:#0072ce;stop-opacity:1" />
    </radialGradient>
  </defs>
  <circle cx="500" cy="281" r="281" fill="url(#grad1)"/>
  <g fill="white">
    <path d="M340.863 149.937c6.519 14.563 19.807 23.394 34.993 23.394 13.731 0 26.083-7.06 31.407-18.535l4.473-9.563h27.187l-8.722 18.535c-8.722 18.535-28.02 30.873-54.345 30.873-32.844 0-59.169-26.325-59.169-59.169s26.325-59.169 59.169-59.169c26.325 0 45.623 12.338 54.345 30.873l8.722 18.535h-27.187l-4.473-9.563c-5.324-11.475-17.676-18.535-31.407-18.535-15.186 0-28.474 8.831-34.993 23.394z"/>
    <path d="M503.722 149.937c6.519 14.563 19.807 23.394 34.993 23.394 13.731 0 26.083-7.06 31.407-18.535l4.473-9.563h27.187l-8.722 18.535c-8.722 18.535-28.02 30.873-54.345 30.873-32.844 0-59.169-26.325-59.169-59.169s26.325-59.169 59.169-59.169c26.325 0 45.623 12.338 54.345 30.873l8.722 18.535h-27.187l-4.473-9.563c-5.324-11.475-17.676-18.535-31.407-18.535-15.186 0-28.474 8.831-34.993 23.394z"/>
    <path d="M185.629 194.343c0-32.844 26.325-59.169 59.169-59.169s59.169 26.325 59.169 59.169-26.325 59.169-59.169 59.169-59.169-26.325-59.169-59.169zm27.187 0c0 17.676 14.306 32.844 31.982 32.844s31.982-15.168 31.982-32.844-14.306-32.844-31.982-32.844-31.982 15.168-31.982 32.844z"/>
    <path d="M185.629 349.343c0-32.844 26.325-59.169 59.169-59.169s59.169 26.325 59.169 59.169-26.325 59.169-59.169 59.169-59.169-26.325-59.169-59.169zm27.187 0c0 17.676 14.306 32.844 31.982 32.844s31.982-15.168 31.982-32.844-14.306-32.844-31.982-32.844-31.982 15.168-31.982 32.844z"/>
    <path d="M340.863 304.937c6.519 14.563 19.807 23.394 34.993 23.394 13.731 0 26.083-7.06 31.407-18.535l4.473-9.563h27.187l-8.722 18.535c-8.722 18.535-28.02 30.873-54.345 30.873-32.844 0-59.169-26.325-59.169-59.169s26.325-59.169 59.169-59.169c26.325 0 45.623 12.338 54.345 30.873l8.722 18.535h-27.187l-4.473-9.563c-5.324-11.475-17.676-18.535-31.407-18.535-15.186 0-28.474 8.831-34.993 23.394z"/>
    <path d="M503.722 304.937c6.519 14.563 19.807 23.394 34.993 23.394 13.731 0 26.083-7.06 31.407-18.535l4.473-9.563h27.187l-8.722 18.535c-8.722 18.535-28.02 30.873-54.345 30.873-32.844 0-59.169-26.325-59.169-59.169s26.325-59.169 59.169-59.169c26.325 0 45.623 12.338 54.345 30.873l8.722 18.535h-27.187l-4.473-9.563c-5.324-11.475-17.676-18.535-31.407-18.535-15.186 0-28.474 8.831-34.993 23.394z"/>
    <path d="M666.581 349.343c0-32.844 26.325-59.169 59.169-59.169s59.169 26.325 59.169 59.169-26.325 59.169-59.169 59.169-59.169-26.325-59.169-59.169zm27.187 0c0 17.676 14.306 32.844 31.982 32.844s31.982-15.168 31.982-32.844-14.306-32.844-31.982-32.844-31.982 15.168-31.982 32.844z"/>
    <path d="M666.581 194.343c0-32.844 26.325-59.169 59.169-59.169s59.169 26.325 59.169 59.169-26.325 59.169-59.169 59.169-59.169-26.325-59.169-59.169zm27.187 0c0 17.676 14.306 32.844 31.982 32.844s31.982-15.168 31.982-32.844-14.306-32.844-31.982-32.844-31.982 15.168-31.982 32.844z"/>
  </g>
  <text x="500" y="450" font-family="Arial, sans-serif" font-size="60" font-weight="bold" text-anchor="middle" fill="white">DISNEY</text>
  <text x="650" y="500" font-family="Arial, sans-serif" font-size="80" font-weight="bold" text-anchor="middle" fill="white">+</text>
</svg>