<svg xmlns="http://www.w3.org/2000/svg" viewBox="0 0 1000 300">
  <rect width="1000" height="300" fill="#000000"/>
  <g fill="white">
    <path d="M100 80h30v60h40V80h30v140h-30v-50h-40v50h-30V80z"/>
    <path d="M250 80h60c30 0 50 20 50 50v40c0 30-20 50-50 50h-60V80zm30 30v80h30c15 0 20-5 20-20v-40c0-15-5-20-20-20h-30z"/>
    <path d="M400 80c40 0 70 30 70 70s-30 70-70 70-70-30-70-70 30-70 70-70zm0 30c-22 0-40 18-40 40s18 40 40 40 40-18 40-40-18-40-40-40z"/>
  </g>
  <g fill="#9146FF">
    <path d="M600 80h60l20 60 20-60h60v140h-30v-100l-25 60h-30l-25-60v100h-30V80z"/>
    <path d="M850 80h80l-40 140h-40l-40-140h40l20 70 20-70z"/>
  </g>
  <text x="500" y="270" font-family="Arial, sans-serif" font-size="24" font-weight="bold" text-anchor="middle" fill="#9146FF">MAX</text>
</svg>